<svg id="Layer_1" data-name="Layer 1" xmlns="http://www.w3.org/2000/svg" xmlns:xlink="http://www.w3.org/1999/xlink" viewBox="0 0 288.36 458.56"><defs><style>.cls-1{fill:url(#Nueva_muestra_de_degradado_3);}.cls-2{fill:url(#Nueva_muestra_de_degradado_3-2);}.cls-3{fill:#231f20;}.cls-4{fill:url(#Nueva_muestra_de_degradado_3-3);}</style><linearGradient id="Nueva_muestra_de_degradado_3" x1="312.71" y1="302.08" x2="481.59" y2="302.08" gradientUnits="userSpaceOnUse"><stop offset="0" stop-color="#8f6d49"/><stop offset="1" stop-color="#ecc282"/></linearGradient><linearGradient id="Nueva_muestra_de_degradado_3-2" x1="427.7" y1="257.28" x2="565.12" y2="257.28" xlink:href="#Nueva_muestra_de_degradado_3"/><linearGradient id="Nueva_muestra_de_degradado_3-3" x1="383.37" y1="102.52" x2="510.43" y2="102.52" xlink:href="#Nueva_muestra_de_degradado_3"/></defs><path class="cls-1" d="M404.48,515.93c21.2-30.55,24.13-63.75,24.15-97.39,0-28.29-1.39-56.58-1.7-84.87-.08-7-2.3-9.32-9.34-11.09-52.35-13.17-89.57-42.75-101.82-97.74-11.24-50.43,9.17-103.37,50.08-132.41,6.64-4.71,11.39-6.68,17.64.74,7.21,8.56-2.26,9.75-5.27,12.71-33.35,32.77-45.78,72-34.75,117.33,10.6,43.64,38.29,72.32,82.82,87.59,0-9-.08-16.69,0-24.35.12-9.28-.36-18.65.73-27.82,4.08-34.48,17.42-46.67,54.55-48.95-22.76,13-26.7,33.49-26.14,55.31.7,27.4,2.35,54.77,3.81,82.14,2,37.19,1.69,74.25-6.73,110.78-3.19,13.87-8.29,27-17.19,38.36C427.88,505.76,418.89,513.1,404.48,515.93Z" transform="translate(-276.77 -68.36)"/><path class="cls-2" d="M427.7,218.63c25.48-27.37,75.11-37.76,105.59-23.8,27.62,12.65,39.3,43.91,26.89,74-13.22,32.06-40.21,46.48-72,54.23a63.8,63.8,0,0,1-10.41,1.85c-3.4.26-8.2,3.52-9.17-3.31-.78-5.45.56-8,6.84-9.91,31.92-9.59,48.76-30.64,48.9-59.43.16-34.69-26.6-55.94-60.16-47C452.54,208.33,441.43,213.52,427.7,218.63Z" transform="translate(-276.77 -68.36)"/><path class="cls-3" d="M339.42,89.77C283.53,139.67,284,229,321.85,279.85c19.33,26,42.93,41.61,87.61,55.34-23.28,4-60.59-8.76-84.19-28.84-57.65-49-65-137.31-16.16-195.18a90.42,90.42,0,0,1,26.42-21.79A2.68,2.68,0,0,1,339.42,89.77Z" transform="translate(-276.77 -68.36)"/><path class="cls-4" d="M391.58,79.25c25.32-10.91,51.28-14.51,78.33-6.69-24.59,1.61-48.26,6.49-72,18.6,20.66,18.31,42.35,31.08,70.25,27.19,16.43-2.29,23.62-13,22.71-31.65,11.28,3.79,18.33,11.24,19.44,22.45s-6.41,18-15.66,22.34c-17.11,8-34.53,5.9-51.46-.56-24.53-9.36-43.9-25.7-59.77-46.38C382.62,77.36,389.65,82.23,391.58,79.25Z" transform="translate(-276.77 -68.36)"/><path class="cls-3" d="M477.76,368.36c6.52,41.83,6.91,83.29-10.1,123.13-9.81,23-28.69,36.49-47.9,35.36,40.85-21,47.48-60.12,54.13-99.22C477.24,408,476.47,388.11,477.76,368.36Z" transform="translate(-276.77 -68.36)"/></svg>